<?xml version="1.0" encoding="UTF-8" standalone="no"?>
<svg
   xmlns:dc="http://purl.org/dc/elements/1.1/"
   xmlns:cc="http://creativecommons.org/ns#"
   xmlns:rdf="http://www.w3.org/1999/02/22-rdf-syntax-ns#"
   xmlns:svg="http://www.w3.org/2000/svg"
   xmlns="http://www.w3.org/2000/svg"
   xmlns:sodipodi="http://sodipodi.sourceforge.net/DTD/sodipodi-0.dtd"
   xmlns:inkscape="http://www.inkscape.org/namespaces/inkscape"
   version="1.1"
   id="Capa_1"
   x="0px"
   y="0px"
   viewBox="0 0 215.35 215.35"
   style="enable-background:new 0 0 215.35 215.35;"
   xml:space="preserve"
   sodipodi:docname="expand.svg"
   inkscape:version="1.0 (4035a4fb49, 2020-05-01)"><metadata
   id="metadata102"><rdf:RDF><cc:Work
       rdf:about=""><dc:format>image/svg+xml</dc:format><dc:type
         rdf:resource="http://purl.org/dc/dcmitype/StillImage" /><dc:title></dc:title></cc:Work></rdf:RDF></metadata><defs
   id="defs100" /><sodipodi:namedview
   inkscape:document-rotation="0"
   pagecolor="#ffffff"
   bordercolor="#666666"
   borderopacity="1"
   objecttolerance="10"
   gridtolerance="10"
   guidetolerance="10"
   inkscape:pageopacity="0"
   inkscape:pageshadow="2"
   inkscape:window-width="1442"
   inkscape:window-height="991"
   id="namedview98"
   showgrid="false"
   inkscape:zoom="3.8541909"
   inkscape:cx="90.161596"
   inkscape:cy="97.296687"
   inkscape:window-x="0"
   inkscape:window-y="0"
   inkscape:window-maximized="0"
   inkscape:current-layer="Capa_1" />
<g
   id="g65">
	<path
   d="M7.5,65.088c4.143,0,7.5-3.358,7.5-7.5V25.61l48.305,48.295c1.465,1.464,3.384,2.196,5.303,2.196   c1.92,0,3.84-0.732,5.304-2.197c2.929-2.929,2.929-7.678-0.001-10.606L25.604,15.002h31.985c4.142,0,7.5-3.358,7.5-7.5   c0-4.142-3.357-7.5-7.5-7.5H7.5c-4.143,0-7.5,3.358-7.5,7.5v50.087C0,61.73,3.357,65.088,7.5,65.088z"
   id="path57"
   style="fill:#0078d7;fill-opacity:1" />
	<path
   d="M207.85,150.262c-4.143,0-7.5,3.358-7.5,7.5v31.979l-49.792-49.792c-2.93-2.929-7.678-2.929-10.607,0   c-2.929,2.929-2.929,7.678,0,10.606l49.791,49.791h-31.977c-4.143,0-7.5,3.358-7.5,7.5c0,4.142,3.357,7.5,7.5,7.5h50.086   c4.143,0,7.5-3.358,7.5-7.5v-50.084C215.35,153.62,211.992,150.262,207.85,150.262z"
   id="path59"
   style="fill:#0078d7;fill-opacity:1" />
	<path
   d="M64.792,139.949L15.005,189.74v-31.978c0-4.142-3.357-7.5-7.5-7.5s-7.5,3.358-7.5,7.5v50.086c0,4.142,3.357,7.5,7.5,7.5   h50.084c4.142,0,7.5-3.358,7.5-7.5s-3.357-7.5-7.5-7.5H25.611l49.788-49.793c2.929-2.929,2.929-7.678-0.001-10.607   C72.471,137.02,67.722,137.02,64.792,139.949z"
   id="path61"
   style="fill:#0078d7;fill-opacity:1" />
	<path
   d="M207.85,0.002h-50.086c-4.143,0-7.5,3.358-7.5,7.5c0,4.142,3.357,7.5,7.5,7.5h31.979l-48.298,48.301   c-2.929,2.929-2.929,7.678,0.001,10.607c1.464,1.464,3.384,2.196,5.303,2.196c1.919,0,3.839-0.733,5.304-2.197l48.298-48.301v31.98   c0,4.142,3.357,7.5,7.5,7.5c4.143,0,7.5-3.358,7.5-7.5V7.502C215.35,3.359,211.992,0.002,207.85,0.002z"
   id="path63"
   style="fill:#0078d7;fill-opacity:1" />
</g>
<g
   id="g67">
</g>
<g
   id="g69">
</g>
<g
   id="g71">
</g>
<g
   id="g73">
</g>
<g
   id="g75">
</g>
<g
   id="g77">
</g>
<g
   id="g79">
</g>
<g
   id="g81">
</g>
<g
   id="g83">
</g>
<g
   id="g85">
</g>
<g
   id="g87">
</g>
<g
   id="g89">
</g>
<g
   id="g91">
</g>
<g
   id="g93">
</g>
<g
   id="g95">
</g>
</svg>
