<?xml version="1.0" encoding="UTF-8" standalone="no"?>
<svg
   xmlns:dc="http://purl.org/dc/elements/1.1/"
   xmlns:cc="http://creativecommons.org/ns#"
   xmlns:rdf="http://www.w3.org/1999/02/22-rdf-syntax-ns#"
   xmlns:svg="http://www.w3.org/2000/svg"
   xmlns="http://www.w3.org/2000/svg"
   xmlns:sodipodi="http://sodipodi.sourceforge.net/DTD/sodipodi-0.dtd"
   xmlns:inkscape="http://www.inkscape.org/namespaces/inkscape"
   inkscape:version="1.0 (4035a4fb49, 2020-05-01)"
   sodipodi:docname="exwhite.svg"
   class=""
   height="512px"
   width="512px"
   xml:space="preserve"
   style="enable-background:new 0 0 215.35 215.35;"
   viewBox="0 0 215.35 215.35"
   y="0px"
   x="0px"
   id="Capa_1"
   version="1.1"><metadata
   id="metadata140"><rdf:RDF><cc:Work
       rdf:about=""><dc:format>image/svg+xml</dc:format><dc:type
         rdf:resource="http://purl.org/dc/dcmitype/StillImage" /></cc:Work></rdf:RDF></metadata><defs
   id="defs138" /><sodipodi:namedview
   inkscape:current-layer="Capa_1"
   inkscape:window-maximized="1"
   inkscape:window-y="-9"
   inkscape:window-x="-9"
   inkscape:cy="256"
   inkscape:cx="256"
   inkscape:zoom="1.6210938"
   showgrid="false"
   id="namedview136"
   inkscape:window-height="1001"
   inkscape:window-width="1920"
   inkscape:pageshadow="2"
   inkscape:pageopacity="0"
   guidetolerance="10"
   gridtolerance="10"
   objecttolerance="10"
   borderopacity="1"
   bordercolor="#666666"
   pagecolor="#ffffff" /><g
   id="g133"><g
     id="g131">
	<path
   id="path123"
   fill="#ffffff"
   data-old_color="#000000"
   class="active-path"
   data-original="#000000"
   d="m 68.608625,11.015 c -4.142999,0 -7.499999,3.358 -7.499999,7.5 v 31.978 l -48.305,-48.2950005 c -1.465,-1.46399999 -3.3840005,-2.19599999 -5.3030005,-2.19599999 -1.92,0 -3.84,0.732 -5.304,2.19699999 -2.92899999,2.929 -2.92899999,7.678 10e-4,10.6060005 L 50.504626,61.101 h -31.985 c -4.142,0 -7.5,3.358 -7.5,7.5 0,4.142 3.357,7.5 7.5,7.5 h 50.088999 c 4.143,0 7.5,-3.358 7.5,-7.5 V 18.514 c 0,-4.141 -3.357,-7.499 -7.5,-7.499 z" />
	<path
   id="path125"
   fill="#ffffff"
   data-old_color="#000000"
   class="active-path"
   data-original="#000000"
   d="m 145.25525,202.83625 c 4.143,0 7.5,-3.358 7.5,-7.5 v -31.979 l 49.792,49.792 c 2.93,2.929 7.678,2.929 10.607,0 2.929,-2.929 2.929,-7.678 0,-10.606 l -49.791,-49.791 h 31.977 c 4.143,0 7.5,-3.358 7.5,-7.5 0,-4.142 -3.357,-7.5 -7.5,-7.5 h -50.086 c -4.143,0 -7.5,3.358 -7.5,7.5 v 50.084 c 10e-4,4.142 3.359,7.5 7.501,7.5 z" />
	<path
   id="path127"
   fill="#ffffff"
   data-old_color="#000000"
   class="active-path"
   data-original="#000000"
   d="m 12.808625,213.15112 49.787,-49.791 v 31.978 c 0,4.142 3.357,7.5 7.5,7.5 4.143,0 7.5,-3.358 7.5,-7.5 v -50.086 c 0,-4.142 -3.357,-7.5 -7.5,-7.5 h -50.084 c -4.142,0 -7.5,3.358 -7.5,7.5 0,4.142 3.357,7.5 7.5,7.5 h 31.978 l -49.788,49.793 c -2.92899998,2.929 -2.92899998,7.678 10e-4,10.607 2.927,2.928 7.676,2.928 10.606,-0.001 z" />
	<path
   id="path129"
   fill="#ffffff"
   data-old_color="#000000"
   class="active-path"
   data-original="#000000"
   d="m 146.74938,76.106 h 50.086 c 4.143,0 7.5,-3.358 7.5,-7.5 0,-4.142 -3.357,-7.5 -7.5,-7.5 h -31.979 l 48.298,-48.301 c 2.929,-2.9290002 2.929,-7.6780002 -0.001,-10.6070002 -1.464,-1.46400005 -3.384,-2.19600005 -5.303,-2.19600005 -1.919,0 -3.839,0.733 -5.304,2.19700005 L 154.24838,50.5 V 18.52 c 0,-4.142 -3.357,-7.5 -7.5,-7.5 -4.143,0 -7.5,3.358 -7.5,7.5 v 50.086 c 0.001,4.143 3.359,7.5 7.501,7.5 z" />
</g></g> </svg>
